<svg width="349" height="216" viewBox="0 0 349 216" fill="none" xmlns="http://www.w3.org/2000/svg">
<path d="M149 133.693H148H118.8H117.8V132.597V4.21006V3.11368H118.8H148H149V4.21006V132.597V133.693Z" fill="white"/>
<path d="M42.0003 133.693H5.30029H4.30029V132.597V4.21006V3.11368H5.30029H41.7003C49.9003 3.11368 57.8003 3.66188 65.0003 4.8679C72.3003 6.07393 79.2003 8.92452 85.6003 13.4197C93.4003 18.9016 99.7003 26.3571 104.2 35.6763C108.7 44.9956 111 56.0691 111 68.5679C111 80.6282 108.6 91.7016 103.7 101.24C98.9003 110.779 92.7003 118.234 85.3003 123.387C79.1003 127.773 72.3003 130.623 65.1003 131.829C57.9003 133.145 50.1003 133.693 42.0003 133.693ZM35.8003 29.3173V107.49C42.2003 107.49 47.6003 107.38 52.0003 107.051C56.3003 106.832 60.5003 105.297 64.5003 102.556C69.1003 99.3763 72.7003 94.8812 75.1003 89.1799C77.5003 83.4787 78.8003 76.4619 78.8003 68.1294C78.8003 59.9065 77.5003 52.7799 74.9003 46.8595C72.4003 41.0486 68.4003 36.5534 63.1003 33.2643C59.3003 30.9619 55.2003 29.6462 51.0003 29.4269C46.7003 29.4269 41.6003 29.3173 35.8003 29.3173Z" fill="white"/>
<path d="M190 133.693H189H159.6H158.6V132.597V4.21006V3.11368H159.6H205C211.8 3.11368 217.8 3.7715 222.7 5.1968C227.7 6.62211 232.3 8.81488 236.4 11.7751C240.9 15.0643 244.5 19.5595 247 25.151C249.5 30.633 250.7 37.3209 250.7 44.7763C250.7 50.8065 249.8 56.7269 248 62.2089C246.2 67.6908 243.6 72.4053 240.3 76.133C238.3 78.4354 236 80.5185 233.6 82.492C231.2 84.4655 228.4 86.1101 225.5 87.4257C222.6 88.7414 219.3 89.8378 215.9 90.6053C212.5 91.3727 208.6 91.7017 204.3 91.7017H190V132.597V133.693ZM190 65.6077H191C193.8 65.6077 196.4 65.6077 198.8 65.498C201.2 65.3884 203.3 65.2787 205.1 64.9498C206.6 64.6209 208.2 64.1823 209.9 63.3052C211.5 62.5378 212.8 61.6607 213.6 60.7836C215.5 58.8101 216.8 56.7269 217.4 54.5342C218.1 52.3414 218.4 49.3812 218.4 45.5438C218.4 42.145 217.7 39.1848 216.2 36.7727C214.7 34.3607 213 32.7161 211 31.839C208.3 30.5233 205.7 29.8655 203.3 29.6462C200.8 29.4269 197.3 29.3173 193 29.3173H190V65.6077Z" fill="white"/>
<path d="M295.8 136.105C287.1 136.105 280 135.228 272.9 133.255C265.9 131.281 257.1 127.553 251.6 124.922L250.7 124.484L251.1 123.497L260 99.4859L260.4 98.2799L261.4 98.9378C266.6 102.117 270.9 104.2 275.7 106.174C282.6 109.025 289.5 110.45 296 110.45C297.7 110.45 300.9 110.231 303.5 109.902C306.1 109.463 308.3 108.915 309.9 108.147C311.8 107.27 313.5 105.955 314.8 104.31C316.1 102.775 316.7 100.692 316.7 98.0607C316.7 95.2101 315.7 92.9077 313.6 91.0438C311.4 89.1799 308.8 87.7546 305.7 86.8775C304.6 86.5486 303.6 86.2197 302.6 86.0004C299.8 85.1233 297.2 84.3558 293.9 83.698C289.3 82.6016 285 81.3956 281.1 79.8607C271.9 76.2426 265.1 71.4185 261.1 65.2787C257.1 59.139 255 51.4643 255 42.3643C255 30.0848 259.8 19.8884 269.3 12.3233C279 4.53896 289.9 0.920898 303.7 0.920898C310.4 0.920898 316.4 1.57874 323.7 3.22331C331 4.86789 338.4 8.26667 343.3 10.6787L344.2 11.1173L343.8 12.104L335.7 34.251L335.3 35.3474L334.3 34.7992C330.8 32.7161 328 31.4004 322.7 29.6462C315.8 27.3438 311.2 26.4667 305.1 26.4667C302.6 26.4667 300.8 26.5763 298.8 26.9052C296.6 27.2342 295.4 27.892 293.2 28.9884C291.7 29.7558 290.2 31.0715 288.8 33.045C287.6 34.6896 287 36.4438 287 38.4173C287 41.3775 287.9 43.6799 289.8 45.4342C292.1 47.5173 295.5 49.0522 300.7 50.4775C304.6 51.4643 308.4 52.451 312.1 53.3281C315.8 54.2053 319.7 55.5209 323.9 57.1655C332.2 60.4547 338.4 64.9498 342.5 70.5414C346.6 76.1329 348.7 83.5884 348.7 92.798C348.7 105.845 344 116.48 334.6 124.484C325.3 131.939 311.9 136.105 295.8 136.105Z" fill="white"/>
<path d="M42.066 214L25.174 189.892L17.958 197.846V214H6.642V155.862H17.958V182.184L41.246 155.862H56.088L33.046 181.2L56.252 214H42.066ZM67.9357 184.89C67.9357 198.01 77.1197 204.242 86.0577 204.242C95.0777 204.242 104.262 198.01 104.262 184.89C104.262 171.77 95.0777 165.538 86.0577 165.538C77.1197 165.538 67.9357 171.77 67.9357 184.89ZM56.2097 184.972C56.2097 166.194 70.3137 154.632 86.0577 154.632C101.884 154.632 115.988 166.194 115.988 184.972C115.988 203.668 101.884 215.23 86.0577 215.23C70.3137 215.23 56.2097 203.668 56.2097 184.972ZM175.408 214H163.518L137.114 172.754V214H125.798V155.862H139.902L164.092 194.32V155.862H175.408V214ZM231.464 166.604H213.096V214H201.698V166.604H183.33V155.862H231.464V166.604ZM246.19 184.89C246.19 198.01 255.374 204.242 264.312 204.242C273.332 204.242 282.516 198.01 282.516 184.89C282.516 171.77 273.332 165.538 264.312 165.538C255.374 165.538 246.19 171.77 246.19 184.89ZM234.464 184.972C234.464 166.194 248.568 154.632 264.312 154.632C280.138 154.632 294.242 166.194 294.242 184.972C294.242 203.668 280.138 215.23 264.312 215.23C248.568 215.23 234.464 203.668 234.464 184.972ZM332.752 214L321.354 191.614H315.45V214H304.052V155.862H326.766C338.082 155.862 345.298 163.652 345.298 173.738C345.298 181.856 340.542 188.006 332.916 190.22L345.38 214H332.752ZM315.45 181.856H324.634C330.374 181.856 333.736 178.576 333.736 173.82C333.736 168.9 330.374 165.702 324.634 165.702H315.45V181.856Z" fill="white"/>
</svg>
