<svg width="280" height="61" viewBox="0 0 280 61" fill="none" xmlns="http://www.w3.org/2000/svg">
<path d="M41.2 1.08V51.88C41.2 54.52 41.36 57.4 41.52 59H31.36C31.2 58.2 30.96 56.28 30.96 54.44C29.2 57.56 25.2 59.96 19.92 59.96C8.72 59.96 0.72 51.16 0.72 39.24C0.72 27.72 8.48 18.68 19.6 18.68C26.4 18.68 29.6 21.48 30.72 23.56V1.08H41.2ZM11.44 39.24C11.44 46.28 15.6 50.44 21.2 50.44C26.64 50.44 30.88 46.28 30.88 39.16C30.88 32.12 26.64 28.2 21.2 28.2C15.76 28.2 11.44 32.2 11.44 39.24ZM52.4225 52.44C52.4225 48.44 55.6225 45.24 59.5425 45.24C63.5425 45.24 66.8225 48.44 66.8225 52.44C66.8225 56.36 63.5425 59.56 59.5425 59.56C55.6225 59.56 52.4225 56.36 52.4225 52.44ZM52.3425 26.28C52.3425 22.28 55.5425 19.08 59.4625 19.08C63.4625 19.08 66.7425 22.28 66.7425 26.28C66.7425 30.2 63.4625 33.4 59.4625 33.4C55.5425 33.4 52.3425 30.2 52.3425 26.28ZM94.7194 50.52C99.9194 50.52 104.719 46.76 104.719 39.32C104.719 31.88 99.9194 28.12 94.7194 28.12C89.5194 28.12 84.7194 31.88 84.7194 39.32C84.7194 46.68 89.5194 50.52 94.7194 50.52ZM94.7194 18.44C106.479 18.44 115.359 27.16 115.359 39.32C115.359 51.4 106.479 60.2 94.7194 60.2C82.9594 60.2 74.0794 51.4 74.0794 39.32C74.0794 27.16 82.9594 18.44 94.7194 18.44ZM177.038 6.68C177.038 3 179.918 0.0399961 183.518 0.0399961C187.198 0.0399961 190.158 3 190.158 6.68C190.158 10.28 187.198 13.16 183.518 13.16C179.918 13.16 177.038 10.28 177.038 6.68ZM151.678 19.64V15C151.678 6.2 157.278 0.52 165.918 0.52C168.158 0.52 170.318 0.919999 171.198 1.32V10.28C170.638 10.12 169.598 9.88 167.838 9.88C165.518 9.88 162.318 10.92 162.318 15.32V19.64H188.878V59H178.238V28.76H162.318V59H151.678V28.76H136.478V59H125.758V28.76H119.198V19.64H125.758V15.16C125.758 6.28 131.358 0.52 140.078 0.52C142.318 0.52 144.478 0.919999 145.358 1.32V10.28C144.798 10.12 143.758 9.88 141.998 9.88C139.678 9.88 136.478 10.92 136.478 15.32V19.64H151.678ZM218.001 28.28C212.561 28.28 208.001 32.2 208.001 39.32C208.001 46.44 212.641 50.44 218.081 50.44C223.521 50.44 226.241 46.84 227.121 43.8L236.481 46.92C234.721 53.48 228.561 60.2 218.081 60.2C206.481 60.2 197.361 51.4 197.361 39.32C197.361 27.16 206.321 18.44 217.761 18.44C228.481 18.44 234.561 25.08 236.241 31.72L226.721 34.92C225.761 31.64 223.281 28.28 218.001 28.28ZM251.674 34.84H269.274C269.114 30.92 266.554 27.08 260.474 27.08C254.954 27.08 251.914 31.24 251.674 34.84ZM270.314 45.08L279.194 47.72C277.194 54.52 270.954 60.2 261.274 60.2C250.474 60.2 240.954 52.44 240.954 39.16C240.954 26.6 250.234 18.44 260.314 18.44C272.474 18.44 279.754 26.2 279.754 38.84C279.754 40.36 279.594 41.96 279.594 42.12H251.434C251.674 47.32 256.074 51.08 261.354 51.08C266.314 51.08 269.034 48.6 270.314 45.08Z" fill="white"/>
</svg>
